<svg xmlns="http://www.w3.org/2000/svg" width="80" height="80" viewBox="0 0 80 80">
  <g id="insta" transform="translate(-1030 -3727)">
    <g id="insta-2" data-name="insta" transform="translate(1030 3727)" fill="none" stroke="#f52e00" stroke-width="3">
      <rect width="80" height="80" stroke="none"/>
      <rect x="1.5" y="1.5" width="77" height="77" fill="none"/>
    </g>
    <path id="icon-instagram" d="M37.073,15.755c-1.845-.085-2.4-.1-7.073-.1s-5.225.017-7.07.1c-4.748.217-6.958,2.465-7.175,7.175-.082,1.845-.1,2.4-.1,7.07s.02,5.225.1,7.073c.218,4.7,2.418,6.957,7.175,7.175,1.843.083,2.4.1,7.07.1s5.227-.018,7.073-.1c4.747-.215,6.955-2.47,7.175-7.175.083-1.845.1-2.4.1-7.072s-.017-5.225-.1-7.07c-.22-4.707-2.433-6.957-7.175-7.175ZM30,38.987A8.986,8.986,0,1,1,38.987,30,8.987,8.987,0,0,1,30,38.987ZM39.342,22.76a2.1,2.1,0,1,1,2.1-2.1A2.1,2.1,0,0,1,39.342,22.76ZM35.832,30A5.832,5.832,0,1,1,30,24.167,5.832,5.832,0,0,1,35.832,30ZM30,0A30,30,0,1,0,60,30,30,30,0,0,0,30,0ZM47.4,37.215c-.287,6.362-3.83,9.888-10.178,10.18-1.867.085-2.465.1-7.217.1s-5.347-.02-7.215-.1c-6.36-.292-9.887-3.822-10.18-10.18-.085-1.865-.1-2.463-.1-7.215s.02-5.347.1-7.215c.293-6.36,3.823-9.887,10.18-10.177C24.653,12.52,25.248,12.5,30,12.5s5.35.02,7.217.108c6.362.293,9.893,3.83,10.178,10.177.085,1.868.1,2.462.1,7.215S47.48,35.35,47.4,37.215Z" transform="translate(1040 3737)" fill="#f52e00"/>
  </g>
</svg>
