<svg xmlns="http://www.w3.org/2000/svg" width="80" height="80" viewBox="0 0 80 80">
  <g id="zap" transform="translate(-830 -3727)">
    <g id="zap-2" data-name="zap" transform="translate(830 3727)" fill="none" stroke="#f52e00" stroke-width="3">
      <rect width="80" height="80" stroke="none"/>
      <rect x="1.5" y="1.5" width="77" height="77" fill="none"/>
    </g>
    <path id="icon-whatsapp" d="M.057,60,4.295,44.593A29.724,29.724,0,0,1,30.183,0,29.743,29.743,0,1,1,15.895,55.865L.057,60Zm16.571-9.517a25.139,25.139,0,0,0,13.544,3.98A24.7,24.7,0,1,0,9.738,43.815l-2.509,9.12,9.4-2.452Zm28.6-13.66c-.186-.31-.683-.495-1.432-.867s-4.416-2.17-5.1-2.418-1.181-.373-1.68.373-1.929,2.417-2.364,2.912-.872.557-1.618.185a20.394,20.394,0,0,1-6-3.688,22.379,22.379,0,0,1-4.152-5.147c-.435-.743-.045-1.145.327-1.515.337-.333.746-.867,1.12-1.3a4.869,4.869,0,0,0,.754-1.237,1.36,1.36,0,0,0-.063-1.3c-.188-.37-1.68-4.028-2.3-5.515-.608-1.447-1.223-1.252-1.68-1.275L19.6,16a2.741,2.741,0,0,0-1.989.93A8.32,8.32,0,0,0,15,23.128c0,3.657,2.675,7.19,3.047,7.685s5.262,8,12.751,11.217a43.323,43.323,0,0,0,4.255,1.565,10.307,10.307,0,0,0,4.7.295c1.434-.212,4.416-1.8,5.039-3.533a6.162,6.162,0,0,0,.435-3.535Z" transform="translate(839.943 3737)" fill="#f52e00"/>
  </g>
</svg>
